<svg xmlns="http://www.w3.org/2000/svg" width="36" height="36" viewBox="0 0 36 36" fill="none">
  <g opacity="0.4">
    <path d="M27.742 24.0578C28.2246 23.6203 29.0066 23.6203 29.4892 24.0578L32.1101 26.4337L32.1109 26.4345C32.5925 26.8719 32.5921 27.5807 32.1101 28.0177C31.6275 28.4552 30.8455 28.4552 30.3629 28.0177L27.742 25.6418C27.7417 25.6415 27.7414 25.6412 27.7411 25.641C27.2596 25.2036 27.26 24.4948 27.742 24.0578V24.0578ZM31.766 16.9292C32.4475 16.9292 33 17.4306 33 18.049C33 18.6675 32.4475 19.1688 31.766 19.1688H29.1051C28.4235 19.1688 27.871 18.6675 27.871 18.049C27.871 17.4306 28.4235 16.9292 29.1051 16.9292H31.766ZM32.1101 7.82067C32.5921 8.2576 32.5925 8.96644 32.1109 9.40383L32.1101 9.4046L29.4892 11.7805C29.0066 12.2181 28.2246 12.2181 27.742 11.7805C27.2599 11.3436 27.2595 10.6347 27.7411 10.1973L27.742 10.1966L30.3629 7.82064C30.8455 7.38314 31.6275 7.38314 32.1101 7.82064V7.82067ZM23.5978 4.90085C23.9133 5.18685 24.1636 5.52646 24.3344 5.90028C24.5051 6.27411 24.593 6.6748 24.593 7.07947V28.9205C24.593 30.6212 23.0736 32 21.1994 32C20.7535 32 20.3119 31.9202 19.8999 31.7653C19.488 31.6103 19.1137 31.3832 18.7986 31.0969L12.6273 25.4914C12.4554 25.3352 12.2512 25.2113 12.0265 25.1268C11.8018 25.0423 11.5609 24.9988 11.3177 24.9988H8.93617C6.21002 24.9988 4 22.9934 4 20.5196V15.4805C4 13.0067 6.21002 11.0013 8.93617 11.0013H11.3176C11.5608 11.0013 11.8017 10.9578 12.0264 10.8732C12.2511 10.7887 12.4552 10.6648 12.6271 10.5087L18.7986 4.90302C20.1232 3.69983 22.2719 3.69888 23.5978 4.90085Z" fill="#C1BFB3"/>
  </g>
</svg>