<svg width="36" height="36" viewBox="0 0 36 36" fill="none" xmlns="http://www.w3.org/2000/svg">
  <g opacity="0.4" clip-path="url(#clip0_2305_3797)">
    <path d="M27.8548 27.8607H23.7085V21.3635C23.7085 19.8142 23.677 17.8203 21.5478 17.8203C19.386 17.8203 19.0558 19.5062 19.0558 21.2492V27.8607H14.9095V14.5H18.8925V16.3212H18.9462C19.5027 15.2712 20.856 14.1628 22.8778 14.1628C27.079 14.1628 27.856 16.9278 27.856 20.527V27.8607H27.8548ZM10.2265 12.6718C9.91019 12.672 9.59696 12.6098 9.30472 12.4887C9.01249 12.3677 8.747 12.1902 8.52344 11.9664C8.29989 11.7426 8.12266 11.477 8.00189 11.1846C7.88113 10.8923 7.81921 10.579 7.81967 10.2627C7.8199 9.78641 7.96135 9.32092 8.22614 8.92505C8.49092 8.52919 8.86715 8.22073 9.30724 8.03869C9.74734 7.85664 10.2315 7.80919 10.6986 7.90233C11.1656 7.99547 11.5946 8.22502 11.9312 8.56195C12.2678 8.89887 12.4969 9.32805 12.5896 9.7952C12.6823 10.2624 12.6344 10.7465 12.4519 11.1864C12.2695 11.6263 11.9606 12.0023 11.5645 12.2667C11.1684 12.5311 10.7028 12.6721 10.2265 12.6718ZM12.3055 27.8607H8.1475V14.5H12.3055V27.8607ZM29.9292 4H6.06617C4.924 4 4 4.903 4 6.01717V29.9828C4 31.0982 4.924 32 6.06617 32H29.9257C31.0667 32 32 31.0982 32 29.9828V6.01717C32 4.903 31.0667 4 29.9257 4H29.9292Z" fill="#C1BFB3" />
  </g>
  <defs>
    <clipPath id="clip0_2305_3797">
      <rect width="36" height="36" fill="white" />
    </clipPath>
  </defs>
</svg>
  