<svg width="36" height="36" viewBox="0 0 36 36" fill="none" xmlns="http://www.w3.org/2000/svg">
  <g opacity="0.4" clip-path="url(#clip0_2305_3779)">
  <path d="M28.3961 8.90753C26.4837 8.02592 24.4337 7.3743 22.29 7.00377C22.271 7.00002 22.2512 7.00244 22.2335 7.01068C22.2158 7.01892 22.2011 7.03258 22.1913 7.04977C21.9288 7.52124 21.6363 8.13581 21.4313 8.62133C19.1578 8.2741 16.8463 8.2741 14.5728 8.62133C14.3444 8.08324 14.087 7.55858 13.8015 7.04977C13.7919 7.03237 13.7772 7.0184 13.7596 7.00972C13.7419 7.00105 13.7221 6.99808 13.7028 7.00121C11.5604 7.37175 9.51041 8.02337 7.59672 8.90626C7.58025 8.91331 7.5663 8.92535 7.55672 8.94075C3.66683 14.7862 2.60061 20.4873 3.12435 26.1168C3.1258 26.1306 3.12999 26.1439 3.13665 26.156C3.14331 26.1681 3.15231 26.1787 3.1631 26.1871C5.43352 27.8767 7.96588 29.1639 10.6541 29.9946C10.6729 30.0005 10.6929 30.0005 10.7116 29.9945C10.7304 29.9886 10.7469 29.9771 10.7591 29.9614C11.3366 29.1692 11.8516 28.3323 12.2916 27.4533C12.3178 27.4022 12.2928 27.3408 12.2403 27.3204C11.4329 27.0096 10.6505 26.6345 9.9004 26.1986C9.88692 26.1907 9.87557 26.1795 9.86735 26.1661C9.85913 26.1526 9.85431 26.1373 9.85332 26.1215C9.85233 26.1056 9.8552 26.0898 9.86167 26.0754C9.86814 26.061 9.87801 26.0484 9.8904 26.0389C10.0479 25.92 10.2054 25.7961 10.3554 25.6722C10.3689 25.661 10.3852 25.6539 10.4024 25.6517C10.4196 25.6494 10.4371 25.6521 10.4529 25.6594C15.3615 27.9132 20.6776 27.9132 25.5287 25.6594C25.5446 25.6516 25.5622 25.6486 25.5797 25.6507C25.5971 25.6527 25.6137 25.6597 25.6274 25.6709C25.7774 25.7961 25.9337 25.92 26.0924 26.0389C26.1049 26.0482 26.115 26.0606 26.1217 26.0749C26.1283 26.0892 26.1314 26.1049 26.1307 26.1208C26.13 26.1366 26.1254 26.152 26.1174 26.1656C26.1094 26.1791 26.0983 26.1905 26.0849 26.1986C25.3375 26.6381 24.56 27.0099 23.7437 27.3191C23.7312 27.3238 23.7198 27.3311 23.7103 27.3406C23.7007 27.3501 23.6933 27.3616 23.6884 27.3743C23.6836 27.387 23.6814 27.4006 23.6821 27.4142C23.6828 27.4279 23.6864 27.4412 23.6925 27.4533C24.1425 28.331 24.6575 29.1666 25.2237 29.9601C25.2355 29.9764 25.2519 29.9885 25.2707 29.995C25.2895 30.0014 25.3097 30.0017 25.3287 29.9959C28.0216 29.1675 30.5581 27.8797 32.831 26.1871C32.8421 26.1791 32.8514 26.1689 32.8583 26.157C32.8652 26.1451 32.8695 26.1318 32.871 26.1181C33.496 19.6095 31.8235 13.9544 28.4349 8.94331C28.4266 8.92702 28.4128 8.91433 28.3961 8.90753ZM13.0253 22.6887C11.5479 22.6887 10.3291 21.3229 10.3291 19.6478C10.3291 17.9715 11.5241 16.6069 13.0253 16.6069C14.5378 16.6069 15.7452 17.983 15.7215 19.6478C15.7215 21.3242 14.5265 22.6887 13.0253 22.6887ZM22.9938 22.6887C21.5151 22.6887 20.2976 21.3229 20.2976 19.6478C20.2976 17.9715 21.4913 16.6069 22.9938 16.6069C24.5062 16.6069 25.7137 17.983 25.6899 19.6478C25.6899 21.3242 24.5075 22.6887 22.9938 22.6887Z" fill="#C1BFB3"/>
  </g>
  <defs>
  <clipPath id="clip0_2305_3779">
  <rect width="36" height="36" fill="white"/>
  </clipPath>
  </defs>
  </svg>
  