<svg width="36" height="36" viewBox="0 0 36 36" fill="none" xmlns="http://www.w3.org/2000/svg">
  <g opacity="0.4" clip-path="url(#clip0_2305_3788)">
  <path d="M10.5892 9C15.8852 9 20.178 13.0297 20.178 18.0002C20.178 22.9706 15.8848 27 10.5892 27C5.29353 27 1 22.9706 1 18.0002C1 13.0297 5.29321 9 10.5892 9ZM25.9024 9.52721C28.5504 9.52721 30.697 13.3203 30.697 18.0002H30.6973C30.6973 22.6788 28.5507 26.4731 25.9028 26.4731C23.2548 26.4731 21.1082 22.6788 21.1082 18.0002C21.1082 13.3215 23.2544 9.52721 25.9024 9.52721ZM33.3137 10.4097C34.2448 10.4097 35 13.808 35 18.0002C35 22.1911 34.2452 25.5906 33.3137 25.5906C32.3823 25.5906 31.6278 22.192 31.6278 18.0002C31.6278 13.8083 32.3826 10.4097 33.3137 10.4097Z" fill="#C1BFB3"/>
  </g>
  <defs>
  <clipPath id="clip0_2305_3788">
  <rect width="36" height="36" fill="white"/>
  </clipPath>
  </defs>
  </svg>
  