<svg width="36" height="36" viewBox="0 0 36 36" fill="none" xmlns="http://www.w3.org/2000/svg">
  <g opacity="0.4" clip-path="url(#clip0_2305_3785)">
  <path d="M34 7.84684C32.8968 8.32792 31.7116 8.65297 30.4657 8.79989C31.7513 8.0429 32.713 6.85148 33.1716 5.44795C31.9638 6.15395 30.6419 6.6509 29.2634 6.91719C28.3364 5.94315 27.1085 5.29755 25.7704 5.0806C24.4324 4.86366 23.059 5.08752 21.8634 5.71742C20.6679 6.34732 19.7171 7.34803 19.1588 8.56417C18.6004 9.78031 18.4656 11.1439 18.7754 12.4431C16.328 12.3222 13.9339 11.6962 11.7483 10.6058C9.5627 9.51535 7.63451 7.98487 6.08888 6.11366C5.56038 7.0108 5.2565 8.05097 5.2565 9.15875C5.25591 10.156 5.50546 11.138 5.98302 12.0176C6.46057 12.8972 7.15136 13.6471 7.9941 14.201C7.01675 14.1704 6.06096 13.9105 5.20629 13.443V13.521C5.20619 14.9197 5.69783 16.2753 6.59779 17.3579C7.49775 18.4405 8.7506 19.1833 10.1438 19.4603C9.2371 19.7018 8.28654 19.7374 7.36387 19.5644C7.75693 20.7678 8.52259 21.8203 9.55364 22.5742C10.5847 23.3282 11.8295 23.7461 13.1139 23.7692C10.9336 25.4535 8.24102 26.3672 5.46922 26.3632C4.97822 26.3633 4.48764 26.3351 4 26.2786C6.81354 28.0589 10.0887 29.0037 13.4336 29C24.7566 29 30.9466 19.7711 30.9466 11.767C30.9466 11.5069 30.94 11.2443 30.9281 10.9843C32.1322 10.1274 33.1715 9.0663 33.9974 7.85074L34 7.84684Z" fill="#C1BFB3"/>
  </g>
  <defs>
  <clipPath id="clip0_2305_3785">
  <rect width="36" height="36" fill="white"/>
  </clipPath>
  </defs>
  </svg>
  