<svg xmlns="http://www.w3.org/2000/svg" width="32" height="32" viewBox="0 0 32 32" fill="none">
  <path d="M23.6872 22.075L23.742 22.0625H23.7983H28.2609C28.9452 22.0625 29.5 21.5077 29.5 20.8234C29.5 20.4589 29.3397 20.1131 29.0616 19.8775C29.0616 19.8775 29.0616 19.8775 29.0616 19.8775L25.9373 17.2314L25.9372 17.2313C25.1764 16.5866 25.1764 15.4134 25.9372 14.7687L25.9373 14.7686L29.0616 12.1225L29.0617 12.1224C29.2302 11.9798 29.3554 11.7968 29.4282 11.5935C29.4752 11.461 29.5 11.3203 29.5 11.1766C29.5 10.4923 28.9452 9.9375 28.2609 9.9375H26.1818H24.1136C23.1187 9.9375 22.287 9.24329 22.075 8.31282L22.0625 8.25799V8.20175V3.73912C22.0625 3.05482 21.5077 2.5 20.8234 2.5C20.6891 2.5 20.5578 2.5217 20.4337 2.56298L20.4331 2.56319C20.2191 2.63409 20.0262 2.76271 19.8776 2.93825L19.8775 2.93838L17.2314 6.06271L17.2313 6.0628C16.5866 6.82361 15.4134 6.82361 14.7687 6.0628L14.7686 6.06271L12.1225 2.93842C12.1225 2.93841 12.1225 2.93839 12.1225 2.93838C11.8869 2.66026 11.5411 2.5 11.1766 2.5C10.4923 2.5 9.9375 3.05482 9.9375 3.73912V5.81818V7.88636C9.9375 8.88129 9.24329 9.71302 8.31282 9.925L8.25799 9.9375H8.20175H3.73912C3.05482 9.9375 2.5 10.4923 2.5 11.1766C2.5 11.5411 2.66028 11.8869 2.93842 12.1225L6.06272 14.7686L6.0628 14.7687C6.82362 15.4134 6.82362 16.5866 6.0628 17.2313L6.06272 17.2314L2.93842 19.8775C2.93841 19.8775 2.93839 19.8775 2.93838 19.8775C2.66026 20.1131 2.5 20.4589 2.5 20.8234C2.5 21.5077 3.05482 22.0625 3.73912 22.0625H5.81818H7.88636C8.88129 22.0625 9.71302 22.7567 9.92501 23.6872L9.9375 23.742V23.7983V28.2609C9.9375 28.9452 10.4923 29.5 11.1766 29.5C11.5411 29.5 11.8869 29.3397 12.1225 29.0616C12.1225 29.0616 12.1225 29.0616 12.1225 29.0616L14.7686 25.9373L14.7687 25.9372C15.4134 25.1764 16.5866 25.1764 17.2313 25.9372L17.2314 25.9373L19.8775 29.0616L19.8777 29.0619C19.9846 29.1883 20.1141 29.2901 20.2575 29.3633L20.258 29.3636C20.4311 29.4522 20.6246 29.5 20.8234 29.5C21.5077 29.5 22.0625 28.9452 22.0625 28.2609V26.1818V24.1136C22.0625 23.1187 22.7567 22.287 23.6872 22.075Z" fill="#CA9824" stroke="black"/>
  <path d="M17.8074 9.07765C17.9155 8.95004 18.0556 8.85666 18.2109 8.80523C18.3012 8.77518 18.3966 8.75943 18.494 8.75943C18.9908 8.75943 19.3936 9.16219 19.3936 9.65898V11.9672L17.8074 9.07765ZM17.8074 9.07765L16.4388 10.6937M17.8074 9.07765L16.4388 10.6937M16.4388 10.6937C16.2086 10.9653 15.7898 10.9653 15.5596 10.6937H16.4388ZM19.9217 18.9077L19.9765 18.8952H20.0328H22.341C22.5617 18.8952 22.7406 18.7163 22.7406 18.4957C22.7406 18.3781 22.6889 18.2666 22.5992 18.1906C22.5992 18.1906 22.5992 18.1906 22.5992 18.1906L20.9832 16.8219L20.9831 16.8218C20.4758 16.392 20.4758 15.6096 20.9831 15.1798L20.9832 15.1797L22.5992 13.811L22.5993 13.8109C22.6536 13.765 22.6939 13.7061 22.7174 13.6405C22.7326 13.5977 22.7406 13.5523 22.7406 13.506C22.7406 13.2853 22.5617 13.1064 22.341 13.1064H21.2656H20.1959C19.5662 13.1064 19.0402 12.6671 18.9061 12.0783L18.8936 12.0235V11.9672V9.65898C18.8936 9.43833 18.7147 9.25943 18.494 9.25943C18.4507 9.25943 18.4085 9.26643 18.3687 9.27966L18.3681 9.27987C18.299 9.30276 18.2369 9.34423 18.1891 9.40067L18.189 9.4008L16.8203 11.0168L16.8202 11.0169C16.3904 11.5242 15.608 11.5242 15.1782 11.0169L15.1781 11.0168L13.8094 9.40084C13.8094 9.40083 13.8094 9.40082 13.8094 9.4008C13.7334 9.31109 13.6219 9.25943 13.5043 9.25943C13.2837 9.25943 13.1048 9.43834 13.1048 9.65898V10.7344V11.8041C13.1048 12.4338 12.6654 12.9598 12.0767 13.0939L12.0219 13.1064H11.9656H9.65736C9.43672 13.1064 9.25781 13.2853 9.25781 13.506C9.25781 13.6235 9.30947 13.735 9.39918 13.811C9.3992 13.811 9.39921 13.811 9.39923 13.811L11.0152 15.1797L11.0153 15.1798C11.5226 15.6096 11.5226 16.392 11.0153 16.8218L11.0152 16.8219L9.39923 18.1906C9.39921 18.1906 9.3992 18.1906 9.39918 18.1906C9.30947 18.2666 9.25781 18.3781 9.25781 18.4957C9.25781 18.7163 9.43672 18.8952 9.65736 18.8952H10.7327H11.8025C12.4321 18.8952 12.9582 19.3346 13.0923 19.9233L13.1048 19.9781V20.0344V22.3426C13.1048 22.5633 13.2837 22.7422 13.5043 22.7422C13.6219 22.7422 13.7334 22.6905 13.8094 22.6008C13.8094 22.6008 13.8094 22.6008 13.8094 22.6008L15.1781 20.9848L15.1782 20.9847C15.608 20.4774 16.3904 20.4774 16.8202 20.9847L16.8203 20.9848L18.189 22.6008L18.1892 22.6011C18.2237 22.6418 18.2653 22.6745 18.3112 22.6979L18.3117 22.6982C18.3675 22.7268 18.43 22.7422 18.494 22.7422C18.7147 22.7422 18.8936 22.5633 18.8936 22.3426V21.2673V20.1975C18.8936 19.5679 19.3329 19.0418 19.9217 18.9077Z" fill="#428737" stroke="black"/>
</svg>