<svg xmlns="http://www.w3.org/2000/svg" width="254" height="145" viewBox="0 0 254 145" fill="none">
  <mask id="path-1-inside-1_16682_131994" fill="white">
    <path fill-rule="evenodd" clip-rule="evenodd" d="M68.233 36.2656L52.9883 47.9532L68.233 59.6408V54.563H103.805V42.3672H68.233V36.2656Z"/>
  </mask>
  <path d="M52.9883 47.9532L52.3798 47.1596L51.3447 47.9532L52.3798 48.7468L52.9883 47.9532ZM68.233 36.2656H69.233V34.2389L67.6246 35.472L68.233 36.2656ZM68.233 59.6408L67.6246 60.4344L69.233 61.6676V59.6408H68.233ZM68.233 54.563V53.563H67.233V54.563H68.233ZM103.805 54.563V55.563H104.805V54.563H103.805ZM103.805 42.3672H104.805V41.3672H103.805V42.3672ZM68.233 42.3672H67.233V43.3672H68.233V42.3672ZM53.5967 48.7468L68.8414 37.0592L67.6246 35.472L52.3798 47.1596L53.5967 48.7468ZM68.8414 58.8472L53.5967 47.1596L52.3798 48.7468L67.6246 60.4344L68.8414 58.8472ZM67.233 54.563V59.6408H69.233V54.563H67.233ZM103.805 53.563H68.233V55.563H103.805V53.563ZM102.805 42.3672V54.563H104.805V42.3672H102.805ZM68.233 43.3672H103.805V41.3672H68.233V43.3672ZM67.233 36.2656V42.3672H69.233V36.2656H67.233Z" fill="#E6E4DC" fill-opacity="0.9" mask="url(#path-1-inside-1_16682_131994)"/>
  <mask id="path-3-inside-2_16682_131994" fill="white">
    <path fill-rule="evenodd" clip-rule="evenodd" d="M83.5748 85.1328L68.3301 96.8204L83.5748 108.508V103.43H119.147V91.2344H83.5748V85.1328Z"/>
  </mask>
  <path d="M68.3301 96.8204L67.7216 96.0268L66.6865 96.8204L67.7216 97.614L68.3301 96.8204ZM83.5748 85.1328H84.5748V83.1061L82.9664 84.3392L83.5748 85.1328ZM83.5748 108.508L82.9664 109.302L84.5748 110.535V108.508H83.5748ZM83.5748 103.43V102.43H82.5748V103.43H83.5748ZM119.147 103.43V104.43H120.147V103.43H119.147ZM119.147 91.2344H120.147V90.2344H119.147V91.2344ZM83.5748 91.2344H82.5748V92.2344H83.5748V91.2344ZM68.9385 97.614L84.1832 85.9264L82.9664 84.3392L67.7216 96.0268L68.9385 97.614ZM84.1832 107.714L68.9385 96.0268L67.7216 97.614L82.9664 109.302L84.1832 107.714ZM82.5748 103.43V108.508H84.5748V103.43H82.5748ZM119.147 102.43H83.5748V104.43H119.147V102.43ZM118.147 91.2344V103.43H120.147V91.2344H118.147ZM83.5748 92.2344H119.147V90.2344H83.5748V92.2344ZM82.5748 85.1328V91.2344H84.5748V85.1328H82.5748Z" fill="#E6E4DC" fill-opacity="0.9" mask="url(#path-3-inside-2_16682_131994)"/>
  <mask id="path-5-inside-3_16682_131994" fill="white">
    <path fill-rule="evenodd" clip-rule="evenodd" d="M46.2447 60.3281L31 72.0157L46.2447 83.7033V78.6255H133.666V66.4297H46.2447V60.3281Z"/>
  </mask>
  <path d="M31 72.0157L30.3916 71.2221L29.3564 72.0157L30.3916 72.8093L31 72.0157ZM46.2447 60.3281H47.2447V58.3014L45.6363 59.5345L46.2447 60.3281ZM46.2447 83.7033L45.6363 84.4969L47.2447 85.7301V83.7033H46.2447ZM46.2447 78.6255V77.6255H45.2447V78.6255H46.2447ZM133.666 78.6255V79.6255H134.666V78.6255H133.666ZM133.666 66.4297H134.666V65.4297H133.666V66.4297ZM46.2447 66.4297H45.2447V67.4297H46.2447V66.4297ZM31.6084 72.8093L46.8531 61.1217L45.6363 59.5345L30.3916 71.2221L31.6084 72.8093ZM46.8531 82.9097L31.6084 71.2221L30.3916 72.8093L45.6363 84.4969L46.8531 82.9097ZM45.2447 78.6255V83.7033H47.2447V78.6255H45.2447ZM133.666 77.6255H46.2447V79.6255H133.666V77.6255ZM132.666 66.4297V78.6255H134.666V66.4297H132.666ZM46.2447 67.4297H133.666V65.4297H46.2447V67.4297ZM45.2447 60.3281V66.4297H47.2447V60.3281H45.2447Z" fill="#E6E4DC" fill-opacity="0.9" mask="url(#path-5-inside-3_16682_131994)"/>
  <circle cx="132.881" cy="72.2423" r="46.2423" fill="#262624"/>
  <circle cx="132.881" cy="72.2423" r="45.7423" stroke="#E6E4DC" stroke-opacity="0.9"/>
  <path fill-rule="evenodd" clip-rule="evenodd" d="M142.622 117.456C140.768 117.854 138.873 118.14 136.944 118.308C138.284 118.425 139.64 118.485 141.01 118.485C166.549 118.485 187.252 97.7812 187.252 72.2423C187.252 46.7034 166.549 26 141.01 26C139.64 26 138.284 26.0596 136.944 26.1762C138.873 26.3443 140.768 26.6307 142.622 27.0282C166.862 27.877 186.252 47.7952 186.252 72.2423C186.252 96.6893 166.862 116.608 142.622 117.456Z" fill="#E6E4DC" fill-opacity="0.9"/>
  <path d="M154.129 82.4881H154.138L154.143 82.4827C154.173 82.4875 154.203 82.4903 154.234 82.4912H154.847C154.929 82.4913 155.009 82.476 155.084 82.4463C155.159 82.4165 155.227 82.3728 155.285 82.3177C155.342 82.2626 155.388 82.1972 155.419 82.1252C155.45 82.0532 155.466 81.976 155.466 81.898V81.3094C155.466 81.1519 155.401 81.0008 155.285 80.8894C155.169 80.778 155.012 80.7155 154.847 80.7155H154.234C154.201 80.7162 154.169 80.7193 154.137 80.7248L154.126 80.7147H154.101C153.973 80.7147 153.85 80.6657 153.759 80.5784C153.668 80.4912 153.617 80.3728 153.617 80.2494C153.617 80.2417 153.617 80.2339 153.617 80.2262L153.606 80.2161C153.613 80.1852 153.616 80.1538 153.617 80.1223V79.5329C153.617 79.3754 153.552 79.2243 153.436 79.1129C153.32 79.0015 153.162 78.939 152.998 78.939H150.58C150.416 78.939 150.259 79.0015 150.143 79.1129C150.027 79.2243 149.962 79.3754 149.962 79.5329V80.1223C149.962 80.2798 150.027 80.4309 150.143 80.5423C150.259 80.6537 150.416 80.7162 150.58 80.7162H152.997C153.027 80.7154 153.057 80.7125 153.086 80.7077L153.095 80.7162H153.127C153.256 80.7162 153.379 80.7653 153.47 80.8525C153.561 80.9398 153.612 81.0581 153.612 81.1815C153.612 81.1924 153.612 81.2024 153.612 81.2125L153.622 81.2226C153.617 81.251 153.614 81.2798 153.614 81.3087V81.898C153.614 81.9287 153.617 81.9593 153.623 81.9895L153.614 81.9972C153.615 82.0053 153.615 82.0133 153.614 82.0213C153.615 82.1402 153.567 82.2548 153.482 82.3413C153.397 82.4278 153.281 82.4798 153.157 82.4865C153.112 82.4767 153.066 82.4715 153.019 82.471H151.711C151.547 82.471 151.39 82.5335 151.274 82.6448C151.158 82.756 151.093 82.9069 151.093 83.0642V83.6536C151.093 83.811 151.158 83.9619 151.274 84.0733C151.39 84.1847 151.547 84.2473 151.711 84.2475H153.023C153.047 84.2467 153.071 84.2444 153.095 84.2406H153.127C153.256 84.2406 153.379 84.2896 153.47 84.3768C153.561 84.4641 153.612 84.5824 153.612 84.7058C153.612 84.7159 153.612 84.726 153.612 84.736L153.622 84.7469C153.617 84.775 153.614 84.8036 153.614 84.8322V85.4215C153.614 85.4535 153.617 85.4854 153.623 85.5169C153.623 85.5254 153.623 85.5332 153.623 85.5409C153.623 85.6643 153.572 85.7827 153.481 85.8699C153.39 85.9572 153.267 86.0062 153.139 86.0062H153.123C153.097 86.0022 153.07 85.9996 153.043 85.9984H150.621C150.54 85.9984 150.46 86.0138 150.385 86.0437C150.31 86.0735 150.242 86.1173 150.184 86.1725C150.127 86.2276 150.081 86.2931 150.05 86.3652C150.019 86.4372 150.004 86.5145 150.004 86.5924V87.1817C150.004 87.2597 150.019 87.3369 150.05 87.4089C150.081 87.4809 150.127 87.5463 150.184 87.6014C150.242 87.6565 150.31 87.7002 150.385 87.73C150.46 87.7598 150.54 87.775 150.621 87.7749H153.039C153.12 87.775 153.2 87.7598 153.275 87.73C153.35 87.7002 153.418 87.6566 153.476 87.6015C153.533 87.5464 153.579 87.481 153.61 87.4089C153.641 87.3369 153.657 87.2597 153.657 87.1817V86.5924C153.657 86.5568 153.653 86.5212 153.646 86.4862V86.4823C153.646 86.4823 153.646 86.4769 153.646 86.4738C153.646 86.3504 153.697 86.232 153.788 86.1448C153.879 86.0575 154.002 86.0085 154.13 86.0085H154.139C154.168 86.0133 154.197 86.0162 154.226 86.0171H154.84C155.004 86.0171 155.162 85.9545 155.278 85.8431C155.394 85.7317 155.459 85.5806 155.459 85.4231V84.8338C155.459 84.7558 155.443 84.6785 155.412 84.6064C155.381 84.5344 155.335 84.4689 155.278 84.4137C155.22 84.3586 155.152 84.3148 155.077 84.285C155.002 84.2551 154.921 84.2398 154.84 84.2398H154.226C154.194 84.2405 154.162 84.2436 154.13 84.2491L154.119 84.239H154.094C153.971 84.2392 153.852 84.1943 153.762 84.1133C153.672 84.0323 153.617 83.9214 153.609 83.8032C153.624 83.7527 153.632 83.7006 153.632 83.6481V83.0588C153.632 83.0289 153.629 82.9991 153.623 82.9696L153.634 82.9595C153.634 82.9595 153.634 82.9541 153.634 82.951C153.634 82.8893 153.647 82.8282 153.672 82.7713C153.697 82.7145 153.734 82.663 153.78 82.6199C153.826 82.5768 153.881 82.543 153.941 82.5204C154.001 82.4977 154.064 82.4868 154.129 82.4881Z" fill="#CA9824"/>
  <path fill-rule="evenodd" clip-rule="evenodd" d="M140.41 54H125.48C124.924 54 124.473 54.4394 124.473 54.9814V60.0491L124.466 60.056V60.1681C124.466 60.7501 124.229 61.3082 123.807 61.7201C123.421 62.0969 122.91 62.3233 122.368 62.3606H117.007C116.451 62.3606 116 62.8 116 63.342V86.1578C116 86.6998 116.451 87.1392 117.007 87.1392H123.575C124.131 87.1392 124.582 86.6998 124.582 86.1578V64.612L124.586 64.6082C124.586 64.5967 124.585 64.5877 124.585 64.5797L124.585 64.5797L124.585 64.5797C124.585 64.5735 124.584 64.5679 124.584 64.5624C124.585 63.9799 124.823 63.4215 125.246 63.0097C125.669 62.5979 126.242 62.3664 126.84 62.366H126.882L126.884 62.3642H138.991L139.002 62.3748H139.151C139.749 62.3748 140.323 62.6063 140.746 63.0185C141.169 63.4306 141.407 63.9897 141.408 64.5728V64.7195L141.411 64.7223V68.7682C141.353 69.2607 141.127 69.7228 140.764 70.0767C140.494 70.3398 140.162 70.5294 139.802 70.6322H130.726C130.17 70.6322 129.719 71.0716 129.719 71.6136V78.015C129.719 78.557 130.17 78.9964 130.726 78.9964H140.531C141.087 78.9964 141.538 78.557 141.538 78.015V72.9634L141.538 72.963C141.543 72.9473 141.543 72.9315 141.543 72.9189C141.543 72.3355 141.781 71.776 142.204 71.3636C142.59 70.9877 143.1 70.7619 143.641 70.7248H148.986C149.542 70.7248 149.993 70.2854 149.993 69.7434V63.342C149.993 62.8 149.542 62.3606 148.986 62.3606H143.458C142.937 62.3132 142.446 62.0902 142.072 61.7264C141.689 61.353 141.458 60.8591 141.417 60.3359V54.9814C141.417 54.4394 140.966 54 140.41 54Z" fill="#CA9824"/>
  <path d="M178.105 64.625H186.236" stroke="#E6E4DC" stroke-opacity="0.9"/>
  <path d="M167.943 43.2812H176.074" stroke="#E6E4DC" stroke-opacity="0.9"/>
  <path d="M152.697 31.0859H160.828" stroke="#E6E4DC" stroke-opacity="0.9"/>
  <path d="M178.615 78.8516H186.746" stroke="#E6E4DC" stroke-opacity="0.9"/>
  <path d="M173.025 93.0781H181.156" stroke="#E6E4DC" stroke-opacity="0.9"/>
  <path d="M161.844 107.312H169.974" stroke="#E6E4DC" stroke-opacity="0.9"/>
  <rect x="101" y="12" width="7.68182" height="1" fill="#E5E4DC" fill-opacity="0.6"/>
  <rect x="110.455" y="12" width="3.54545" height="1" fill="#E5E4DC" fill-opacity="0.6"/>
  <rect x="208" y="76" width="9" height="1" fill="#E5E4DC" fill-opacity="0.6"/>
  <rect x="220" y="76" width="4" height="1" fill="#E5E4DC" fill-opacity="0.6"/>
  <rect x="157" y="137" width="9.45416" height="1" fill="#E5E4DC" fill-opacity="0.6"/>
  <rect x="168.637" y="137" width="4.36346" height="1" fill="#E5E4DC" fill-opacity="0.6"/>
</svg>