<svg width="120" height="24" viewBox="0 0 120 24" fill="none" xmlns="http://www.w3.org/2000/svg">
<g clip-path="url(#clip0_1984_59896)">
<path fill-rule="evenodd" clip-rule="evenodd" d="M25.2091 3.20001H21.9666C20.1449 3.20033 18.398 3.9242 17.11 5.21242C15.822 6.50065 15.0984 8.24772 15.0984 10.0694V13.3107C15.0984 15.1323 15.822 16.8792 17.11 18.1672C18.3981 19.4553 20.145 20.1789 21.9666 20.1789H25.2091C27.0306 20.1789 28.7776 19.4553 30.0656 18.1672C31.3537 16.8792 32.0773 15.1323 32.0773 13.3107V10.0694C32.0773 8.24772 31.3537 6.50065 30.0657 5.21242C28.7777 3.9242 27.0308 3.20033 25.2091 3.20001ZM24.1161 13.9509C24.1161 14.0917 24.0602 14.2266 23.9607 14.3261C23.8612 14.4256 23.7262 14.4815 23.5855 14.4815C23.4448 14.4815 23.3098 14.4256 23.2103 14.3261C23.1108 14.2266 23.0549 14.0917 23.0549 13.9509V9.43386C23.0549 9.29313 23.1108 9.15818 23.2103 9.05867C23.3098 8.95917 23.4448 8.90327 23.5855 8.90327C23.7262 8.90327 23.8612 8.95917 23.9607 9.05867C24.0602 9.15818 24.1161 9.29313 24.1161 9.43386V13.9509ZM43.2173 3.20001H39.9748C38.1532 3.20033 36.4062 3.9242 35.1182 5.21242C33.8302 6.50064 33.1067 8.24772 33.1067 10.0694V13.3107C33.1067 15.1323 33.8303 16.8792 35.1183 18.1672C36.4063 19.4553 38.1533 20.1789 39.9748 20.1789H43.2173C45.8422 20.1835 46.1012 16.9445 44.2451 15.0884L43.7939 14.6372C43.7414 14.589 43.6993 14.5306 43.6699 14.4657C43.6406 14.4008 43.6247 14.3306 43.6232 14.2594C43.6217 14.1881 43.6346 14.1173 43.6612 14.0512C43.6877 13.9851 43.7274 13.925 43.7778 13.8747C43.8282 13.8243 43.8882 13.7846 43.9543 13.758C44.0204 13.7315 44.0912 13.7186 44.1625 13.7201C44.2337 13.7216 44.3039 13.7375 44.3688 13.7668C44.4338 13.7962 44.4921 13.8383 44.5403 13.8908L44.9915 14.342C46.8476 16.1981 50.0866 15.9391 50.082 13.3142V10.0694C50.082 8.24833 49.3589 6.50179 48.0717 5.21367C46.7844 3.92555 45.0384 3.20126 43.2173 3.20001ZM78.5088 11.8927C78.5525 11.9519 78.614 11.9955 78.6843 12.0172L86.0371 14.2823C85.8027 15.9185 84.9863 17.4153 83.7375 18.4982C82.4887 19.5811 80.8913 20.1774 79.2384 20.1777H75.9959C74.1744 20.1777 72.4274 19.4541 71.1394 18.1661C69.8514 16.878 69.1278 15.1311 69.1278 13.3095V10.0694C69.1276 9.16734 69.3051 8.2741 69.6502 7.44068C69.9953 6.60725 70.5012 5.84997 71.139 5.21208C71.7768 4.57418 72.534 4.06817 73.3673 3.72294C74.2007 3.3777 75.0939 3.20001 75.9959 3.20001H79.2384C80.8913 3.20058 82.4885 3.79697 83.7372 4.87981C84.986 5.96265 85.8025 7.45935 86.0371 9.09546L78.6843 11.3593C78.614 11.381 78.5525 11.4247 78.5088 11.4839C78.4651 11.5431 78.4416 11.6147 78.4416 11.6883C78.4416 11.7618 78.4651 11.8335 78.5088 11.8927ZM84.7118 11.1601H85.5784C85.8702 11.1601 86.1067 11.3963 86.1067 11.6877C86.1067 11.9791 85.8702 12.2154 85.5784 12.2154H84.7118C84.4201 12.2154 84.1836 11.9791 84.1836 11.6877C84.1836 11.3963 84.4201 11.1601 84.7118 11.1601ZM60.1337 4.29185C60.1337 3.68884 60.6225 3.20001 61.2255 3.20001C62.1277 3.19986 63.0211 3.37742 63.8547 3.72257C64.6883 4.06772 65.4457 4.57369 66.0837 5.21159C66.7217 5.84948 67.2278 6.60681 67.5731 7.44032C67.9184 8.27382 68.0961 9.16719 68.0961 10.0694V13.3107C68.0961 14.2127 67.9184 15.106 67.5732 15.9393C67.2279 16.7727 66.7219 17.5299 66.084 18.1677C65.4461 18.8054 64.6888 19.3113 63.8554 19.6564C63.022 20.0015 62.1288 20.179 61.2267 20.1789H57.9854C56.1638 20.1789 54.4169 19.4553 53.1288 18.1672C51.8408 16.8792 51.1172 15.1323 51.1172 13.3107V10.0694C51.1172 8.24874 51.84 6.50256 53.1267 5.2145C54.4134 3.92645 56.1589 3.20189 57.9795 3.20001C58.5832 3.20001 59.0725 3.68937 59.0725 4.29303V9.70622C59.0725 9.84695 59.1284 9.9819 59.2279 10.0814C59.3274 10.1809 59.4624 10.2368 59.6031 10.2368C59.7438 10.2368 59.8788 10.1809 59.9783 10.0814C60.0778 9.9819 60.1337 9.84695 60.1337 9.70622V4.29185ZM104.546 3.89455H118.757C118.934 3.89389 119.109 3.93885 119.264 4.02511C119.419 4.11138 119.55 4.23606 119.643 4.3872C119.736 4.53834 119.789 4.71088 119.796 4.88827C119.803 5.06566 119.765 5.24195 119.685 5.40025L112.579 19.6106C112.493 19.783 112.361 19.9279 112.197 20.0293C112.033 20.1306 111.845 20.1843 111.652 20.1843C111.459 20.1843 111.271 20.1306 111.107 20.0293C110.943 19.9279 110.811 19.783 110.725 19.6106L103.62 5.39435C103.541 5.23636 103.503 5.06081 103.511 4.88436C103.519 4.70791 103.572 4.53642 103.665 4.38616C103.758 4.23591 103.887 4.11187 104.042 4.02583C104.196 3.93979 104.37 3.8946 104.546 3.89455ZM3.03332 4.59714L3.04297 4.59038C3.80915 4.05371 4.67354 3.67324 5.58679 3.4707C6.50003 3.26816 7.44423 3.24752 8.36545 3.40995C9.28667 3.57239 10.1669 3.91472 10.9558 4.41739C11.7447 4.92007 12.4268 5.57323 12.9632 6.33958C13.0798 6.50609 13.1255 6.71209 13.0902 6.91226C13.0549 7.11244 12.9415 7.29039 12.775 7.40698L12.6523 7.49292C12.2161 7.7983 12.1101 8.3994 12.4155 8.83552L12.4184 8.83353L13.0629 9.75398C13.5722 10.4821 13.933 11.3035 14.1249 12.1711C14.3167 13.0387 14.3357 13.9356 14.1809 14.8106C14.0261 15.6856 13.7004 16.5215 13.2225 17.2706C12.7446 18.0197 12.1238 18.6673 11.3955 19.1765C9.92568 20.2056 8.10719 20.6088 6.34009 20.2972C4.573 19.9856 3.00206 18.9848 1.97286 17.515L1.76997 17.2252C1.65339 17.0587 1.60772 16.8527 1.64302 16.6525C1.67831 16.4524 1.79168 16.2744 1.95819 16.1578L5.41619 13.7365C5.63425 13.5838 5.68724 13.2833 5.53456 13.0652C5.38187 12.8471 5.08132 12.7942 4.86325 12.9468L2.35248 14.7049C2.18594 14.8204 1.98045 14.8652 1.78095 14.8295C1.58146 14.7939 1.40421 14.6807 1.28797 14.5147C0.204608 12.9675 -0.21976 11.0533 0.108225 9.19316C0.43621 7.33306 1.48968 5.67944 3.03689 4.59608L3.03332 4.59714ZM91.6395 4.92767L91.6298 4.93439L91.6305 4.93536C90.0817 6.01197 89.024 7.65974 88.6901 9.5162C88.3562 11.3726 88.7734 13.2857 89.85 14.8345C89.9659 15.0012 90.1432 15.115 90.343 15.151C90.5428 15.1869 90.7487 15.142 90.9154 15.0261L93.6789 13.1051C93.8294 13.0005 94.0363 13.0373 94.1414 13.1875C94.2468 13.338 94.2103 13.5455 94.0597 13.651L90.4837 16.1549C90.3172 16.2715 90.2038 16.4495 90.1685 16.6496C90.1332 16.8498 90.1789 17.0558 90.2955 17.2223L90.4984 17.5121C91.5275 18.9819 93.0985 19.9827 94.8656 20.2943C96.6327 20.6059 98.4512 20.2027 99.921 19.1735L99.923 19.1764C101.393 18.1472 102.394 16.5763 102.705 14.8092C103.017 13.0421 102.614 11.2236 101.585 9.75378L100.94 8.83332L100.937 8.83556C100.735 8.54774 100.806 8.15096 101.094 7.95042L101.348 7.77437C101.514 7.65851 101.628 7.48118 101.664 7.2814C101.7 7.08161 101.655 6.87574 101.539 6.70906C101.006 5.942 100.327 5.28744 99.5414 4.78278C98.7554 4.27811 97.8777 3.93322 96.9584 3.7678C96.0391 3.60238 95.0962 3.61967 94.1835 3.81868C93.2709 4.01769 92.4064 4.39453 91.6395 4.92767Z" fill="#C1BFB3"/>
</g>
<defs>
<clipPath id="clip0_1984_59896">
<rect width="120" height="24" fill="white"/>
</clipPath>
</defs>
</svg>
