<svg width="967" height="139" viewBox="0 0 967 139" fill="none" xmlns="http://www.w3.org/2000/svg">
<path fill-rule="evenodd" clip-rule="evenodd" d="M491.398 8.15828e-07H494.211C501.494 -0.00124837 508.705 1.43207 515.434 4.21811C522.162 7.00415 528.276 11.0883 533.426 16.2374C538.576 21.3865 542.661 27.4996 545.449 34.2277C548.236 40.9557 549.67 48.1669 549.67 55.4495V81.6133C549.67 88.8946 548.236 96.1045 545.449 102.831C542.663 109.558 538.578 115.67 533.429 120.819C528.28 125.967 522.167 130.05 515.44 132.836C508.712 135.621 501.502 137.055 494.221 137.053H468.057C453.353 137.053 439.252 131.212 428.855 120.815C418.458 110.418 412.617 96.3169 412.617 81.6133V55.4495C412.617 40.7532 418.451 26.6581 428.838 16.2609C439.224 5.8638 453.313 0.0151368 468.009 8.15828e-07H470.832C474.146 8.15828e-07 476.832 2.68629 476.832 6V52.518C476.832 53.6539 477.284 54.7433 478.087 55.5465C478.89 56.3497 479.979 56.801 481.115 56.801C482.251 56.801 483.34 56.3497 484.144 55.5465C484.947 54.7433 485.398 53.6539 485.398 52.518V6C485.398 2.68629 488.084 8.15828e-07 491.398 8.15828e-07ZM348.849 8.15828e-07H322.676C307.971 0.00252475 293.87 5.84562 283.473 16.2441C273.077 26.6426 267.236 40.745 267.236 55.4495V81.6133C267.236 96.3169 273.077 110.418 283.474 120.815C293.871 131.212 307.972 137.053 322.676 137.053H348.849C359.91 137.072 370.67 133.77 379.765 127.649C382.663 125.699 382.804 121.621 380.334 119.152L353.503 92.3206C353.08 91.9315 352.739 91.4607 352.503 90.9366C352.266 90.4125 352.137 89.8459 352.125 89.2709C352.113 88.6959 352.217 88.1244 352.432 87.5907C352.646 87.0571 352.966 86.5723 353.373 86.1656C353.78 85.759 354.265 85.4388 354.798 85.2243C355.332 85.0098 355.903 84.9056 356.478 84.9177C357.053 84.9299 357.62 85.0583 358.144 85.2951C358.668 85.532 359.139 85.8724 359.528 86.2959L386.359 113.127C388.829 115.597 392.906 115.455 394.856 112.558C400.977 103.462 404.28 92.7028 404.261 81.6418V55.4495C404.261 40.7499 398.424 26.6519 388.033 16.2542C377.643 5.85653 363.549 0.0100932 348.849 8.15828e-07ZM633.722 70.1671C634.075 70.6449 634.571 70.9973 635.138 71.1725L694.49 89.4558C692.598 102.663 686.008 114.746 675.928 123.487C665.848 132.228 652.954 137.041 639.612 137.044H613.438C598.735 137.044 584.633 131.203 574.236 120.806C563.839 110.409 557.998 96.3074 557.998 81.6038V55.4495C557.997 48.1682 559.43 40.958 562.216 34.2306C565.001 27.5032 569.085 21.3904 574.233 16.2413C579.381 11.0923 585.493 7.00774 592.22 4.22102C598.947 1.43431 606.157 8.15828e-07 613.438 8.15828e-07H639.612C652.953 0.00461511 665.846 4.81865 675.926 13.5593C686.005 22.2999 692.596 34.3813 694.49 47.5879L635.138 65.8617C634.571 66.0369 634.075 66.3893 633.722 66.8671C633.369 67.345 633.179 67.9232 633.179 68.5171C633.179 69.1109 633.369 69.6892 633.722 70.1671ZM683.792 64.2535H690.787C693.142 64.2535 695.051 66.1603 695.051 68.5126C695.051 70.8648 693.142 72.7717 690.787 72.7717H683.792C681.437 72.7717 679.528 70.8648 679.528 68.5126C679.528 66.1603 681.437 64.2535 683.792 64.2535ZM203.487 8.15828e-07H177.314C162.609 0.00252475 148.508 5.84562 138.111 16.2441C127.714 26.6427 121.874 40.745 121.874 55.4495V81.6133C121.874 96.3169 127.715 110.418 138.112 120.815C148.509 131.212 162.61 137.053 177.314 137.053H203.487C218.191 137.053 232.292 131.212 242.689 120.815C253.086 110.418 258.927 96.3169 258.927 81.6133V55.4495C258.927 40.745 253.086 26.6427 242.69 16.2441C232.293 5.84562 218.191 0.00252475 203.487 8.15828e-07ZM194.664 86.7813C194.664 87.9173 194.213 89.0066 193.41 89.8098C192.607 90.613 191.517 91.0643 190.381 91.0643C189.245 91.0643 188.156 90.613 187.353 89.8098C186.55 89.0066 186.098 87.9173 186.098 86.7813V50.3195C186.098 49.1836 186.55 48.0942 187.353 47.291C188.156 46.4878 189.245 46.0366 190.381 46.0366C191.517 46.0366 192.607 46.4878 193.41 47.291C194.213 48.0942 194.664 49.1836 194.664 50.3195V86.7813ZM843.897 5.60612H958.603C960.036 5.60079 961.446 5.96368 962.699 6.66001C963.952 7.35634 965.004 8.36276 965.756 9.58277C966.508 10.8028 966.934 12.1955 966.993 13.6274C967.052 15.0593 966.742 16.4823 966.093 17.7601L908.74 132.466C908.046 133.857 906.978 135.027 905.656 135.845C904.333 136.663 902.81 137.096 901.255 137.096C899.7 137.096 898.176 136.663 896.854 135.845C895.532 135.027 894.463 133.857 893.769 132.466L836.416 17.7125C835.779 16.4372 835.478 15.0201 835.542 13.5958C835.606 12.1715 836.033 10.7873 836.783 9.57439C837.532 8.36153 838.579 7.36032 839.824 6.66581C841.069 5.9713 842.471 5.60653 843.897 5.60612ZM24.4849 11.2775L24.5628 11.2229C30.7474 6.89091 37.7248 3.81976 45.0964 2.18486C52.4681 0.549954 60.0897 0.383337 67.5257 1.69452C74.9618 3.0057 82.0668 5.76899 88.4347 9.82656C94.8027 13.8841 100.309 19.1565 104.639 25.3424C105.58 26.6865 105.949 28.3493 105.664 29.9651C105.379 31.5809 104.464 33.0174 103.12 33.9585L100.67 35.674C97.9551 37.5746 97.2954 41.3159 99.1961 44.0303L100.218 45.4896L100.241 45.4735L105.443 52.9034C109.554 58.781 112.467 65.4108 114.016 72.4142C115.564 79.4176 115.718 86.6574 114.468 93.7202C113.218 100.783 110.589 107.53 106.732 113.577C102.874 119.624 97.8628 124.852 91.9845 128.961C80.1199 137.269 65.4411 140.523 51.1771 138.008C36.9132 135.493 24.2326 127.415 15.9249 115.55L14.2872 113.211C13.3461 111.867 12.9775 110.204 13.2624 108.589C13.5473 106.973 14.4624 105.536 15.8064 104.595L43.7194 85.0503C45.4796 83.8178 45.9073 81.3918 44.6748 79.6316C43.4423 77.8714 41.0163 77.4436 39.2561 78.6761L18.9891 92.8672C17.6448 93.7993 15.9861 94.161 14.3758 93.8732C12.7655 93.5854 11.3348 92.6716 10.3965 91.3316C1.65159 78.8426 -1.7739 63.3911 0.873588 48.3765C3.52108 33.3618 12.0247 20.0138 24.5137 11.2689L24.4849 11.2775ZM739.713 13.9458L739.635 14L739.64 14.0078C727.138 22.6982 718.601 35.9991 715.905 50.9843C713.21 65.9696 716.578 81.4117 725.269 93.9137C726.204 95.2591 727.635 96.1779 729.248 96.4679C730.861 96.758 732.522 96.3955 733.868 95.4603L756.175 79.954C757.39 79.1093 759.06 79.4066 759.909 80.6189C760.759 81.8341 760.464 83.5091 759.249 84.36L730.383 104.572C729.039 105.513 728.124 106.949 727.839 108.565C727.554 110.181 727.923 111.844 728.864 113.188L730.502 115.527C738.809 127.391 751.49 135.47 765.754 137.985C780.018 140.5 794.697 137.246 806.561 128.938L806.578 128.962C818.442 120.654 826.521 107.973 829.036 93.7094C831.551 79.4455 828.297 64.7666 819.989 52.902L814.787 45.4721L814.761 45.4902C813.134 43.167 813.704 39.9642 816.033 38.3454L818.078 36.9243C819.423 35.9891 820.342 34.5577 820.632 32.945C820.922 31.3324 820.559 29.6705 819.624 28.3251C815.322 22.1334 809.842 16.8499 803.497 12.7762C797.152 8.70258 790.068 5.91862 782.647 4.58335C775.226 3.24807 767.615 3.38764 760.249 4.99406C752.882 6.60048 745.904 9.6423 739.713 13.9458Z" fill="#C1BFB3"/>
</svg>
