<svg width="36" height="37" viewBox="0 0 36 37" fill="none" xmlns="http://www.w3.org/2000/svg">
  <path fill-rule="evenodd" clip-rule="evenodd" d="M16.5454 6.90003V9.80005H10.7273V12.7001H13.6361V15.5997H16.5453V18.5H13.636V15.5998H10.7273V18.5001H13.6361V21.4002H10.7273V24.3002H7.81828V21.4002H2.00015V18.5001H7.81828V15.5998H4.90925V12.7003H2.00012V9.80003H4.90925V6.90003H7.81828V4H10.7273V6.90003H16.5454ZM4.90941 9.80005V12.7001H7.81828V9.80005H4.90941ZM4.00015 33C2.8956 33 2.00017 32.1046 2.00015 31L2 24.2998H4.90903V30.0997H31.0905V9.79958H19.4545V6.89956H32C33.1046 6.89956 34 7.79499 34 8.89956V31C34 32.1046 33.1046 33 32 33H4.00015Z" fill="#C1BFB3" />
</svg>
  