<svg width="36" height="36" viewBox="0 0 36 36" fill="none" xmlns="http://www.w3.org/2000/svg">
<g opacity="0.4" clip-path="url(#clip0_9907_201992)">
<path d="M15.3333 23.5294V14.4706L23.3333 19.0155L15.3333 23.5294ZM33.68 12.7455C33.68 12.7455 33.3667 10.5908 32.408 9.64094C31.1907 8.39471 29.8267 8.38953 29.2013 8.31706C24.724 8 18.0067 8 18.0067 8H17.9933C17.9933 8 11.276 8 6.79867 8.31706C6.172 8.38953 4.80933 8.39471 3.59067 9.64094C2.632 10.5908 2.32 12.7468 2.32 12.7468C2.32 12.7468 2 15.2755 2 17.8055V20.1802C2 22.7115 2.32 25.2428 2.32 25.2428C2.32 25.2428 2.632 27.3975 3.59067 28.3474C4.80933 29.5936 6.408 29.5535 7.12 29.6842C9.68 29.9262 18 30 18 30C18 30 24.724 29.9896 29.2013 29.6739C29.828 29.6001 31.1907 29.5949 32.408 28.3487C33.368 27.3988 33.68 25.2428 33.68 25.2428C33.68 25.2428 34 22.7128 34 20.1815V17.8081C34 15.2768 33.68 12.7455 33.68 12.7455Z" fill="#C1BFB3"/>
</g>
<defs>
<clipPath id="clip0_9907_201992">
<rect width="36" height="36" fill="white"/>
</clipPath>
</defs>
</svg>
